<svg width="64" height="64" viewBox="0 0 64 64" fill="none" xmlns="http://www.w3.org/2000/svg">
<path d="M8.85314 27.4743C9.69378 27.5844 10.5434 27.3536 11.2151 26.8325C11.8868 26.3115 12.3256 25.5429 12.4348 24.6959C12.5441 23.849 12.315 22.9929 11.7978 22.3162C11.2807 21.6394 10.5179 21.1974 9.67725 21.0872L4.09867 19.6821C3.69196 19.5565 3.26431 19.5146 2.84121 19.559C2.41811 19.6034 2.00822 19.7332 1.63594 19.9406C1.26367 20.148 0.936632 20.4287 0.674325 20.7662C0.412018 21.1036 0.219806 21.4907 0.10914 21.9046C-0.00152689 22.3184 -0.0283828 22.7505 0.0301727 23.175C0.0887282 23.5995 0.231497 24.0078 0.449971 24.3755C0.668446 24.7433 0.958157 25.063 1.30184 25.3155C1.64553 25.5681 2.03615 25.7484 2.45045 25.8456L8.02903 27.3466C8.29457 27.4359 8.57324 27.4791 8.85314 27.4743ZM21.088 9.62244C21.2737 10.3192 21.6881 10.932 22.2637 11.3611C22.8392 11.7902 23.542 12.0104 24.2576 11.9857C24.5306 12.0298 24.8088 12.0298 25.0817 11.9857C25.8862 11.7614 26.5705 11.2265 26.9859 10.4971C27.4013 9.76759 27.5143 8.90248 27.3005 8.08954L25.8108 2.46892C25.7142 2.0515 25.5353 1.65793 25.2846 1.31165C25.034 0.965379 24.7167 0.673484 24.3517 0.453363C23.9867 0.233241 23.5814 0.0893969 23.1601 0.0304001C22.7387 -0.0285967 22.3099 -0.00153839 21.8992 0.109962C21.4884 0.221463 21.1042 0.415124 20.7693 0.679408C20.4344 0.943692 20.1557 1.27319 19.9499 1.64827C19.7441 2.02335 19.6153 2.43634 19.5712 2.86263C19.5271 3.28892 19.5687 3.71978 19.6933 4.12956L21.088 9.62244ZM36.3974 41.5578C36.1013 41.2438 35.7448 40.9937 35.3498 40.8228C34.9547 40.652 34.5293 40.5638 34.0994 40.5638C33.6695 40.5638 33.244 40.652 32.849 40.8228C32.4539 40.9937 32.0975 41.2438 31.8014 41.5578L20.7076 52.9268C19.4033 54.1877 17.6656 54.8917 15.8581 54.8917C14.0505 54.8917 12.3129 54.1877 11.0085 52.9268C10.3664 52.2881 9.8566 51.5273 9.50863 50.6886C9.16068 49.8498 8.9815 48.9498 8.9815 48.0407C8.9815 47.1316 9.16068 46.2316 9.50863 45.3928C9.8566 44.5541 10.3664 43.7933 11.0085 43.1546L22.2924 31.9772C22.6242 31.6909 22.8937 31.3386 23.084 30.9424C23.2742 30.5462 23.3812 30.1146 23.398 29.6748C23.4149 29.235 23.3413 28.7965 23.182 28.3866C23.0226 27.9768 22.7809 27.6046 22.472 27.2934C22.1631 26.9822 21.7937 26.7386 21.3869 26.5781C20.9802 26.4175 20.5449 26.3434 20.1084 26.3604C19.6719 26.3774 19.2435 26.4851 18.8503 26.6768C18.4571 26.8685 18.1074 27.14 17.8232 27.4743L6.4442 38.6198C5.21212 39.8611 4.23478 41.3349 3.56798 42.9568C2.90118 44.5787 2.55799 46.3171 2.55799 48.0726C2.55799 49.8282 2.90118 51.5666 3.56798 53.1885C4.23478 54.8104 5.21212 56.2841 6.4442 57.5255C7.67629 58.7669 9.13898 59.7516 10.7488 60.4234C12.3586 61.0952 14.0839 61.441 15.8264 61.441C17.5688 61.441 19.2942 61.0952 20.9039 60.4234C22.5137 59.7516 23.9764 58.7669 25.2085 57.5255L36.3974 46.2523C36.7191 45.9533 36.9759 45.5903 37.1515 45.1863C37.3271 44.7824 37.4178 44.3461 37.4178 43.9051C37.4178 43.464 37.3271 43.0278 37.1515 42.6238C36.9759 42.2198 36.7191 41.8569 36.3974 41.5578ZM10.1844 14.7002C10.7748 15.2902 11.5716 15.6228 12.4031 15.6263C12.8203 15.6287 13.2338 15.5482 13.62 15.3892C14.0062 15.2303 14.3574 14.9962 14.6536 14.7002C15.2439 14.1018 15.5753 13.2924 15.5753 12.4487C15.5753 11.605 15.2439 10.7956 14.6536 10.1973L10.5647 6.07762C9.95839 5.55443 9.17842 5.28104 8.38069 5.31209C7.58297 5.34313 6.82625 5.67632 6.26175 6.24507C5.69725 6.81383 5.36656 7.57625 5.33574 8.37999C5.30493 9.18372 5.57627 9.96958 6.09554 10.5805L10.1844 14.7002ZM61.1523 38.1088L55.5737 36.6078C55.1603 36.4639 54.7218 36.4077 54.2858 36.4428C53.8498 36.4779 53.4257 36.6035 53.0403 36.8118C52.6548 37.0201 52.3163 37.3065 52.046 37.653C51.7758 37.9995 51.5796 38.3986 51.4699 38.8253C51.3602 39.2519 51.3394 39.6967 51.4086 40.1319C51.4779 40.567 51.6358 40.983 51.8724 41.3537C52.109 41.7243 52.4192 42.0416 52.7835 42.2856C53.1477 42.5296 53.5581 42.695 53.9889 42.7714L59.5675 44.2723H60.3916C61.2323 44.3824 62.0819 44.1516 62.7536 43.6305C63.4253 43.1095 63.864 42.3409 63.9733 41.4939C64.0826 40.647 63.8535 39.7909 63.3363 39.1142C62.8192 38.4374 62.0564 37.9954 61.2157 37.8853L61.1523 38.1088ZM42.5148 54.332C42.4048 53.9271 42.2166 53.5481 41.961 53.2165C41.7055 52.885 41.3876 52.6075 41.0255 52.3999C40.6634 52.1922 40.2642 52.0586 39.8508 52.0065C39.4374 51.9545 39.0178 51.985 38.6161 52.0965C37.8116 52.3207 37.1274 52.8556 36.712 53.5851C36.2966 54.3146 36.1835 55.1797 36.3974 55.9926L37.8871 61.6132C38.0729 62.31 38.4873 62.9228 39.0628 63.3519C39.6384 63.781 40.3412 64.0012 41.0568 63.9765C41.3306 64.0079 41.6071 64.0079 41.8809 63.9765C42.2856 63.869 42.6651 63.6819 42.9977 63.4259C43.3302 63.1699 43.6092 62.85 43.8184 62.4849C44.0276 62.1197 44.163 61.7163 44.2167 61.2982C44.2704 60.88 44.2414 60.4552 44.1313 60.0484L42.5148 54.332ZM53.4184 49.3181C52.812 48.7949 52.0321 48.5215 51.2343 48.5526C50.4366 48.5836 49.6799 48.9168 49.1154 49.4856C48.5509 50.0543 48.2202 50.8168 48.1894 51.6205C48.1586 52.4242 48.4299 53.2101 48.9492 53.821L53.038 57.9407C53.6319 58.5355 54.4353 58.8693 55.2726 58.8693C56.11 58.8693 56.9134 58.5355 57.5072 57.9407C58.0976 57.3423 58.4289 56.5329 58.4289 55.6892C58.4289 54.8455 58.0976 54.0361 57.5072 53.4378L53.4184 49.3181ZM60.9622 16.0095C61.0114 13.3539 60.2695 10.7444 58.8321 8.5178C57.3947 6.29124 55.328 4.5499 52.8986 3.51857C50.4692 2.48724 47.7888 2.21328 45.2033 2.73206C42.6179 3.25083 40.2461 4.53853 38.3943 6.42891L27.2054 17.7979C26.9057 18.102 26.6684 18.4625 26.507 18.859C26.3456 19.2554 26.2633 19.68 26.2647 20.1085C26.2662 20.5371 26.3514 20.9611 26.5156 21.3564C26.6797 21.7517 26.9195 22.1106 27.2212 22.4126C27.523 22.7145 27.8809 22.9536 28.2744 23.1162C28.6679 23.2789 29.0893 23.3618 29.5146 23.3603C29.9399 23.3588 30.3608 23.273 30.7531 23.1076C31.1455 22.9422 31.5017 22.7006 31.8014 22.3966L42.8952 11.0276C44.1995 9.76676 45.9371 9.06275 47.7447 9.06275C49.5523 9.06275 51.2899 9.76676 52.5943 11.0276C53.2364 11.6663 53.7462 12.4271 54.0941 13.2658C54.4421 14.1046 54.6213 15.0046 54.6213 15.9137C54.6213 16.8228 54.4421 17.7228 54.0941 18.5616C53.7462 19.4004 53.2364 20.1611 52.5943 20.7998L41.3103 31.9772C40.72 32.5756 40.3886 33.385 40.3886 34.2287C40.3886 35.0723 40.72 35.8817 41.3103 36.4801C41.9042 37.0749 42.7076 37.4088 43.5449 37.4088C44.3823 37.4088 45.1857 37.0749 45.7795 36.4801L57.1586 25.3347C59.5846 22.8448 60.9495 19.4987 60.9622 16.0095Z" fill="url(#paint0_linear_44_22)"/>
<defs>
<linearGradient id="paint0_linear_44_22" x1="8.15003e-07" y1="32" x2="54.3883" y2="54.864" gradientUnits="userSpaceOnUse">
<stop stop-color="#50E1FC"/>
<stop offset="1" stop-color="#AE62F7"/>
</linearGradient>
</defs>
</svg>
