<svg width="70" height="56" viewBox="0 0 70 56" fill="none" xmlns="http://www.w3.org/2000/svg">
<path d="M8.936 55.648H61.064C61.928 55.648 62.648 54.928 62.648 54.064V50.176H7.352V54.064C7.352 55.072 8.072 55.648 8.936 55.648ZM65.24 9.56801C62.792 9.56801 60.92 11.44 60.92 13.888C60.92 15.04 61.352 16.192 62.216 16.912L49.256 30.16L37.016 8.27201C38.312 7.55201 39.176 6.11201 39.176 4.52801C39.176 2.08001 37.304 0.208008 34.856 0.208008C32.408 0.208008 30.536 2.08001 30.536 4.52801C30.536 6.11201 31.4 7.55201 32.696 8.27201L20.456 30.16L7.496 16.912C8.648 16.192 9.08 15.04 9.08 13.888C9.08 11.44 7.208 9.56801 4.76 9.56801C2.312 9.56801 0.440002 11.44 0.440002 13.888C0.440002 16.336 2.312 18.208 4.76 18.208C4.904 18.208 5.048 18.208 5.048 18.208L7.352 47.584H62.648L64.952 18.208C65.096 18.208 65.24 18.208 65.24 18.208C67.688 18.208 69.56 16.336 69.56 13.888C69.56 11.584 67.688 9.56801 65.24 9.56801Z" fill="url(#paint0_linear_46_26)"/>
<defs>
<linearGradient id="paint0_linear_46_26" x1="0.440003" y1="27.928" x2="54.6646" y2="56.348" gradientUnits="userSpaceOnUse">
<stop stop-color="#50E1FC"/>
<stop offset="1" stop-color="#AE62F7"/>
</linearGradient>
</defs>
</svg>
