<svg width="66" height="66" viewBox="0 0 66 66" fill="none" xmlns="http://www.w3.org/2000/svg">
<path fill-rule="evenodd" clip-rule="evenodd" d="M31.875 6.9315V9.84975L23.6692 14.5883L20.94 9.86325C21.8445 8.80575 22.0312 7.25325 21.2977 5.982C20.3662 4.36875 18.3008 3.81525 16.6875 4.74675C15.0743 5.67825 14.5208 7.74375 15.4523 9.357C16.1858 10.6283 17.6257 11.2402 18.9915 10.9882L21.7208 15.7133L13.515 20.4518L10.9882 18.9915C11.2402 17.6257 10.6283 16.1858 9.357 15.4523C7.74375 14.5208 5.67825 15.0743 4.74675 16.6875C3.81525 18.3008 4.36875 20.3662 5.982 21.2977C7.25325 22.0312 8.80575 21.8445 9.86325 20.94L12.39 22.4002V31.875H6.9315C6.468 30.5655 5.21925 29.625 3.75 29.625C1.887 29.625 0.375 31.137 0.375 33C0.375 34.863 1.887 36.375 3.75 36.375C5.21925 36.375 6.468 35.4345 6.9315 34.125H12.39V43.5998L9.86325 45.06C8.80575 44.1555 7.25325 43.9688 5.982 44.7023C4.36875 45.6338 3.81525 47.6992 4.74675 49.3125C5.67825 50.9258 7.74375 51.4792 9.357 50.5477C10.6283 49.8143 11.2402 48.3742 10.9882 47.0085L13.515 45.5482L21.7208 50.2868L18.9915 55.0118C17.6257 54.7598 16.1858 55.3717 15.4523 56.643C14.5208 58.2562 15.0743 60.3217 16.6875 61.2533C18.3008 62.1847 20.3662 61.6312 21.2977 60.018C22.0312 58.7467 21.8445 57.1943 20.94 56.1368L23.6692 51.4118L31.875 56.1502V59.0685C30.5655 59.532 29.625 60.7808 29.625 62.25C29.625 64.113 31.137 65.625 33 65.625C34.863 65.625 36.375 64.113 36.375 62.25C36.375 60.7808 35.4345 59.532 34.125 59.0685V56.1502L42.3307 51.4118L45.06 56.1368C44.1555 57.1943 43.9688 58.7467 44.7023 60.018C45.6338 61.6312 47.6992 62.1847 49.3125 61.2533C50.9258 60.3217 51.4792 58.2562 50.5477 56.643C49.8143 55.3717 48.3742 54.7598 47.0085 55.0118L44.2793 50.2868L52.485 45.5482L55.0118 47.0085C54.7598 48.3742 55.3717 49.8143 56.643 50.5477C58.2562 51.4792 60.3217 50.9258 61.2533 49.3125C62.1847 47.6992 61.6312 45.6338 60.018 44.7023C58.7467 43.9688 57.1943 44.1555 56.1368 45.06L53.61 43.5998V34.125H59.0685C59.532 35.4345 60.7808 36.375 62.25 36.375C64.113 36.375 65.625 34.863 65.625 33C65.625 31.137 64.113 29.625 62.25 29.625C60.7808 29.625 59.532 30.5655 59.0685 31.875H53.61V22.4002L56.1368 20.94C57.1943 21.8445 58.7467 22.0312 60.018 21.2977C61.6312 20.3662 62.1847 18.3008 61.2533 16.6875C60.3217 15.0743 58.2562 14.5208 56.643 15.4523C55.3717 16.1858 54.7598 17.6257 55.0118 18.9915L52.485 20.4518L44.2793 15.7133L47.0085 10.9882C48.3742 11.2402 49.8143 10.6283 50.5477 9.357C51.4792 7.74375 50.9258 5.67825 49.3125 4.74675C47.6992 3.81525 45.6338 4.36875 44.7023 5.982C43.9688 7.25325 44.1555 8.80575 45.06 9.86325L42.3307 14.5883L34.125 9.84975V6.9315C35.4345 6.468 36.375 5.21925 36.375 3.75C36.375 1.887 34.863 0.375 33 0.375C31.137 0.375 29.625 1.887 29.625 3.75C29.625 5.21925 30.5655 6.468 31.875 6.9315ZM33 63.375C32.379 63.375 31.875 62.871 31.875 62.25C31.875 61.629 32.379 61.125 33 61.125C33.621 61.125 34.125 61.629 34.125 62.25C34.125 62.871 33.621 63.375 33 63.375ZM48.5993 57.768C48.9098 58.3057 48.7253 58.9943 48.1875 59.3047C47.6497 59.6152 46.9613 59.4307 46.6507 58.893C46.3402 58.3552 46.5247 57.6668 47.0625 57.3563C47.6003 57.0458 48.2887 57.2302 48.5993 57.768ZM17.4008 57.768C17.7113 57.2302 18.3997 57.0458 18.9375 57.3563C19.4753 57.6668 19.6597 58.3552 19.3492 58.893C19.0387 59.4307 18.3503 59.6152 17.8125 59.3047C17.2747 58.9943 17.0903 58.3057 17.4008 57.768ZM33 11.7983L51.36 22.4002V43.5998L33 54.2018L14.64 43.5998V22.4002L33 11.7983ZM33.5625 14.0258C33.2137 13.8255 32.7863 13.8255 32.4375 14.0258L16.8495 23.0258C16.5007 23.226 16.287 23.5972 16.287 24V42C16.287 42.4027 16.5007 42.774 16.8495 42.9743L32.4375 51.9743C32.7863 52.1745 33.2137 52.1745 33.5625 51.9743L49.1505 42.9743C49.4992 42.774 49.713 42.4027 49.713 42V24C49.713 23.5972 49.4992 23.226 49.1505 23.0258L33.5625 14.0258ZM59.3047 48.1875C58.9943 48.7253 58.3057 48.9098 57.768 48.5993C57.2302 48.2887 57.0458 47.6003 57.3563 47.0625C57.6668 46.5247 58.3552 46.3402 58.893 46.6507C59.4307 46.9613 59.6152 47.6497 59.3047 48.1875ZM6.69525 48.1875C6.38475 47.6497 6.56925 46.9613 7.107 46.6507C7.64475 46.3402 8.33325 46.5247 8.64375 47.0625C8.95425 47.6003 8.76975 48.2887 8.232 48.5993C7.69425 48.9098 7.00575 48.7253 6.69525 48.1875ZM22.875 37.5V33.2655L25.2443 38.004C25.476 38.4698 26.0002 38.715 26.5087 38.5957C27.0173 38.4743 27.375 38.022 27.375 37.5V28.5C27.375 27.879 26.871 27.375 26.25 27.375C25.629 27.375 25.125 27.879 25.125 28.5V32.7345L22.7557 27.996C22.524 27.5303 21.9998 27.285 21.4913 27.4042C20.9827 27.5257 20.625 27.978 20.625 28.5V37.5C20.625 38.121 21.129 38.625 21.75 38.625C22.371 38.625 22.875 38.121 22.875 37.5ZM40.875 29.625V37.5C40.875 38.121 41.379 38.625 42 38.625C42.621 38.625 43.125 38.121 43.125 37.5V29.625H44.25C44.871 29.625 45.375 29.121 45.375 28.5C45.375 27.879 44.871 27.375 44.25 27.375H39.75C39.129 27.375 38.625 27.879 38.625 28.5C38.625 29.121 39.129 29.625 39.75 29.625H40.875ZM31.875 34.125H33C33.621 34.125 34.125 33.621 34.125 33C34.125 32.379 33.621 31.875 33 31.875H31.875V29.625H35.25C35.871 29.625 36.375 29.121 36.375 28.5C36.375 27.879 35.871 27.375 35.25 27.375H30.75C30.129 27.375 29.625 27.879 29.625 28.5V37.5C29.625 38.121 30.129 38.625 30.75 38.625C31.371 38.625 31.875 38.121 31.875 37.5V34.125ZM3.75 31.875C4.371 31.875 4.875 32.379 4.875 33C4.875 33.621 4.371 34.125 3.75 34.125C3.129 34.125 2.625 33.621 2.625 33C2.625 32.379 3.129 31.875 3.75 31.875ZM62.25 31.875C62.871 31.875 63.375 32.379 63.375 33C63.375 33.621 62.871 34.125 62.25 34.125C61.629 34.125 61.125 33.621 61.125 33C61.125 32.379 61.629 31.875 62.25 31.875ZM6.69525 17.8125C7.00575 17.2747 7.69425 17.0903 8.232 17.4008C8.76975 17.7113 8.95425 18.3997 8.64375 18.9375C8.33325 19.4753 7.64475 19.6597 7.107 19.3492C6.56925 19.0387 6.38475 18.3503 6.69525 17.8125ZM59.3047 17.8125C59.6152 18.3503 59.4307 19.0387 58.893 19.3492C58.3552 19.6597 57.6668 19.4753 57.3563 18.9375C57.0458 18.3997 57.2302 17.7113 57.768 17.4008C58.3057 17.0903 58.9943 17.2747 59.3047 17.8125ZM19.3492 7.107C19.6597 7.64475 19.4753 8.33325 18.9375 8.64375C18.3997 8.95425 17.7113 8.76975 17.4008 8.232C17.0903 7.69425 17.2747 7.00575 17.8125 6.69525C18.3503 6.38475 19.0387 6.56925 19.3492 7.107ZM46.6507 7.107C46.9613 6.56925 47.6497 6.38475 48.1875 6.69525C48.7253 7.00575 48.9098 7.69425 48.5993 8.232C48.2887 8.76975 47.6003 8.95425 47.0625 8.64375C46.5247 8.33325 46.3402 7.64475 46.6507 7.107ZM33 2.625C33.621 2.625 34.125 3.129 34.125 3.75C34.125 4.371 33.621 4.875 33 4.875C32.379 4.875 31.875 4.371 31.875 3.75C31.875 3.129 32.379 2.625 33 2.625Z" fill="url(#paint0_linear_42_20)"/>
<defs>
<linearGradient id="paint0_linear_42_20" x1="0.375001" y1="33" x2="55.8256" y2="56.3106" gradientUnits="userSpaceOnUse">
<stop stop-color="#50E1FC"/>
<stop offset="1" stop-color="#AE62F7"/>
</linearGradient>
</defs>
</svg>
