<svg width="64" height="64" viewBox="0 0 64 64" fill="none" xmlns="http://www.w3.org/2000/svg">
<path d="M32 0C14.3544 0 0 14.3544 0 32C0 49.6456 14.3544 64 32 64C49.6456 64 64 49.6456 64 32C64 14.3544 49.6456 0 32 0ZM42.0531 41.775C41.0866 43.1837 39.8204 44.2406 38.1605 45.0295C36.9361 45.5722 35.6615 45.9055 34.3449 46.0294V50.3307C34.3449 50.9873 33.814 51.5166 33.1591 51.5166H29.6098C28.9533 51.5166 28.424 50.9856 28.424 50.3307V45.6576C27.7557 45.4934 27.0974 45.264 26.4375 44.9625C24.6637 44.2389 23.2333 43.0597 22.23 41.4735C21.2233 40.0013 20.6823 38.2811 20.5986 36.2494C20.5718 35.6062 21.0626 35.0601 21.7041 35.0166L24.8915 34.7989C25.533 34.762 26.0757 35.2159 26.1511 35.8423C26.2784 36.9093 26.5782 37.792 27.0204 38.395C27.5178 39.142 28.156 39.6328 29.1208 40.0281C31.1642 40.9275 33.7637 40.9292 35.5626 40.2374C36.3599 39.8957 36.9244 39.5038 37.2979 39.0214C37.6178 38.5625 37.7752 38.0801 37.7752 37.5039C37.7752 36.9629 37.6362 36.5642 37.2996 36.1321C37.1237 35.8976 36.6698 35.4588 35.4755 34.9814C34.8926 34.7888 33.3785 34.3583 31.0738 33.8006C28.3821 33.1289 26.8244 32.6197 25.8579 32.0955C24.4192 31.335 23.3388 30.387 22.6605 29.2832C21.9653 28.1593 21.6136 26.8763 21.6136 25.4727C21.6136 23.9451 22.0407 22.4896 22.8815 21.1463C23.7525 19.8365 25.0372 18.8081 26.615 18.1448C27.1426 17.9053 27.7423 17.7043 28.4256 17.5435V13.5889C28.4256 12.9323 28.9566 12.403 29.6115 12.403H33.1607C33.8173 12.403 34.3466 12.934 34.3466 13.5889V17.3341C35.4136 17.5116 36.4018 17.7813 37.2979 18.1381C39.0315 18.9169 40.2894 19.9604 41.1871 21.349C42.0866 22.6588 42.5941 24.2316 42.6829 25.9953C42.7147 26.6418 42.2222 27.1946 41.5757 27.2381L38.3129 27.4575C37.6831 27.5011 37.1421 27.0522 37.0567 26.4341C36.8741 25.0958 36.4269 24.1612 35.6883 23.58C34.8491 22.8648 33.6314 22.5315 31.9297 22.5315C30.2631 22.5315 28.9248 22.8548 28.1593 23.4443C27.5379 23.9234 27.2465 24.4996 27.2465 25.2566C27.2465 25.8395 27.4291 26.2968 27.7892 26.6184C27.9801 26.7691 29.0219 27.4475 32.3903 28.156C35.1724 28.8126 37.2175 29.4105 38.338 29.8929C40.1235 30.6969 41.3998 31.7337 42.1485 32.9798C42.9843 34.231 43.4048 35.6313 43.4048 37.2125C43.4048 38.8573 42.9508 40.3915 42.0531 41.775Z" fill="url(#paint0_linear_45_24)"/>
<defs>
<linearGradient id="paint0_linear_45_24" x1="8.15003e-07" y1="32" x2="54.3883" y2="54.864" gradientUnits="userSpaceOnUse">
<stop stop-color="#50E1FC"/>
<stop offset="1" stop-color="#AE62F7"/>
</linearGradient>
</defs>
</svg>
