<svg width="72" height="72" viewBox="0 0 72 72" fill="none" xmlns="http://www.w3.org/2000/svg">
<path d="M36 0C31.0432 0 27 4.04325 27 9C27 13.5765 30.447 17.3025 34.875 17.8605V21.375C34.875 21.9645 35.4105 22.5 36 22.5H40.5C41.3392 22.5 41.8343 22.734 42.1875 23.1322C42.5407 23.5305 42.75 24.0885 42.75 24.6803C42.75 25.2698 42.5407 25.8975 42.1875 26.298C41.8343 26.6962 41.3392 26.928 40.5 26.928H31.5C30.0982 26.928 28.89 27.5445 28.125 28.4062C27.36 29.268 27 30.339 27 31.4303C27 32.5192 27.36 33.66 28.125 34.524C28.89 35.3857 30.0982 35.9302 31.5 35.9302H34.875V38.1105H17.7188C17.5989 38.1142 17.4804 38.137 17.3678 38.178C17.199 38.178 17.0438 38.115 16.875 38.1105C16.8518 38.1098 16.8285 38.1098 16.8053 38.1105C7.8975 38.1105 0 46.0868 0 55.053C0 64.0215 7.8975 72 16.8053 72C23.4877 72 29.7428 67.653 32.274 61.452H39.726C42.2595 67.653 48.5145 71.991 55.1948 72C64.1025 72 72 64.0192 72 55.0552C72 46.089 64.1025 38.1082 55.1948 38.1082C55.0373 38.1105 54.8595 38.1735 54.7043 38.1802H54.6323C54.609 38.1795 54.5857 38.1795 54.5625 38.1802C54.4722 38.1442 54.3777 38.12 54.2812 38.1082H37.125V34.8075C37.1139 34.5127 36.9918 34.233 36.7831 34.0244C36.5745 33.8157 36.2948 33.6936 36 33.6825H31.5C30.6607 33.6825 30.1658 33.3765 29.8125 32.9782C29.4441 32.5481 29.2443 31.9988 29.25 31.4325C29.25 30.8407 29.4592 30.285 29.8125 29.8845C30.1658 29.4862 30.6607 29.1825 31.5 29.1825H40.5C41.9017 29.1825 43.11 28.638 43.875 27.7763C44.64 26.9123 45 25.7738 45 24.6825C45 23.5913 44.64 22.5225 43.875 21.6585C43.11 20.7945 41.9017 20.25 40.5 20.25H37.125V17.8582C41.553 17.3025 45 13.5765 45 9C45 4.04325 40.9567 0 36 0ZM36 2.25C39.7417 2.25 42.75 5.25825 42.75 9C42.7526 10.7429 42.0806 12.4191 40.8747 13.6774C39.6688 14.9358 38.0226 15.6785 36.2812 15.75H35.7188C33.9774 15.6785 32.3312 14.9358 31.1253 13.6774C29.9194 12.4191 29.2474 10.7429 29.25 9C29.25 5.25825 32.2583 2.25 36 2.25ZM38.601 5.55525L34.875 9.28125L33.399 7.80525L31.851 9.351L34.101 11.601L34.875 12.4447L35.649 11.601L40.149 7.101L38.601 5.55525ZM16.8075 40.3605C17.0775 40.3605 17.3115 40.4055 17.5793 40.428C17.6999 40.4245 17.8191 40.4018 17.9325 40.3605H54.1418C54.2318 40.3942 54.3285 40.419 54.423 40.428C54.693 40.4055 54.927 40.3605 55.197 40.3605C62.7255 40.3605 69.7523 47.4435 69.7523 55.053C69.75 62.6693 62.7233 69.75 55.1948 69.75C49.2772 69.75 43.461 65.6145 41.4855 59.976C41.4078 59.7556 41.2652 59.5639 41.0765 59.4261C40.8877 59.2883 40.6616 59.211 40.428 59.2043H31.5697C31.3365 59.2114 31.1109 59.289 30.9226 59.4267C30.7343 59.5644 30.592 59.7559 30.5145 59.976C28.539 65.6145 22.7205 69.741 16.8053 69.75C9.27675 69.75 2.25 62.667 2.25 55.0552C2.25 47.4435 9.27675 40.3582 16.8053 40.3582L16.8075 40.3605ZM55.2668 44.0865C53.1068 44.0865 51.3293 45.8617 51.3293 48.024C51.3293 50.184 53.1068 51.9615 55.2668 51.9615C57.4268 51.9615 59.2043 50.184 59.2043 48.024C59.2043 45.8617 57.4268 44.0865 55.2668 44.0865ZM55.2668 46.3365C56.2028 46.3365 56.9543 47.0677 56.9543 48.024C56.9543 48.978 56.2028 49.7115 55.2668 49.7115C55.0446 49.7136 54.8242 49.6714 54.6185 49.5873C54.4128 49.5033 54.2259 49.3791 54.0688 49.2219C53.9117 49.0648 53.7875 48.8779 53.7034 48.6723C53.6194 48.4666 53.5771 48.2462 53.5793 48.024C53.5793 47.0677 54.333 46.3365 55.2668 46.3365ZM15.9637 46.827C15.8673 46.8388 15.7728 46.863 15.6825 46.899C15.4382 46.9684 15.2233 47.116 15.0709 47.3192C14.9185 47.5224 14.837 47.77 14.8387 48.024V53.9302H9C8.84218 53.9269 8.68531 53.9555 8.53883 54.0143C8.39235 54.0732 8.25929 54.161 8.14767 54.2727C8.03605 54.3843 7.94816 54.5173 7.88932 54.6638C7.83047 54.8103 7.80187 54.9672 7.80525 55.125C7.83416 55.4193 7.97345 55.6918 8.19511 55.8876C8.41678 56.0833 8.70436 56.1879 9 56.1802H14.8365V62.0865C14.8437 62.3841 14.9641 62.6677 15.1731 62.8796C15.3821 63.0916 15.6641 63.2159 15.9615 63.2272C16.2589 63.2159 16.5409 63.0916 16.7499 62.8796C16.9589 62.6677 17.0793 62.3841 17.0865 62.0865V56.1802H22.9207C23.2187 56.1736 23.5029 56.0535 23.7153 55.8444C23.9277 55.6353 24.0524 55.3531 24.0637 55.0552C24.0524 54.7578 23.9281 54.4759 23.7161 54.2669C23.5042 54.0578 23.2206 53.9375 22.923 53.9302H17.0865V48.024C17.0938 47.7167 16.9799 47.4189 16.7694 47.1949C16.5589 46.9709 16.2687 46.8387 15.9615 46.827H15.9637ZM31.0095 50.5552C30.717 50.631 30.464 50.8146 30.3013 51.0692C30.1385 51.3238 30.078 51.6305 30.132 51.9277C30.2078 52.2198 30.391 52.4724 30.6451 52.6351C30.8992 52.7978 31.2053 52.8586 31.5023 52.8052H33.7523C34.0498 52.798 34.3335 52.6777 34.5454 52.4686C34.7573 52.2596 34.8816 51.9777 34.893 51.6802C34.8816 51.3828 34.7573 51.1009 34.5454 50.8919C34.3335 50.6828 34.0498 50.5625 33.7523 50.5552C32.8522 50.5508 31.8735 50.5552 31.0095 50.5552ZM37.7595 50.5552C37.467 50.631 37.214 50.8146 37.0513 51.0692C36.8885 51.3238 36.828 51.6305 36.882 51.9277C36.9578 52.2198 37.141 52.4724 37.3951 52.6351C37.6492 52.7978 37.9553 52.8586 38.2523 52.8052H40.5023C40.7998 52.798 41.0835 52.6777 41.2954 52.4686C41.5073 52.2596 41.6316 51.9777 41.643 51.6802C41.6316 51.3828 41.5073 51.1009 41.2954 50.8919C41.0835 50.6828 40.7998 50.5625 40.5023 50.5552H37.7595ZM48.3075 51.1177C46.1475 51.1177 44.37 52.893 44.37 55.0552C44.37 57.2152 46.1475 58.9927 48.3075 58.9927C50.4675 58.9927 52.245 57.2152 52.245 55.0552C52.245 52.893 50.4675 51.1177 48.3075 51.1177ZM62.2282 51.1177C60.0682 51.1177 58.2907 52.893 58.2907 55.0552C58.2907 57.2152 60.0682 58.9927 62.2282 58.9927C64.3883 58.9927 66.1657 57.2152 66.1657 55.0552C66.1657 52.893 64.3883 51.1177 62.2282 51.1177ZM48.3075 53.3677C49.2412 53.3677 49.995 54.099 49.995 55.0552C49.995 56.0093 49.2412 56.7427 48.3075 56.7427C48.0853 56.7449 47.8649 56.7026 47.6592 56.6186C47.4536 56.5345 47.2667 56.4103 47.1096 56.2532C46.9524 56.0961 46.8282 55.9092 46.7442 55.7035C46.6601 55.4978 46.6179 55.2774 46.62 55.0552C46.62 54.099 47.3715 53.3677 48.3075 53.3677ZM62.2282 53.3677C63.1642 53.3677 63.9157 54.099 63.9157 55.0552C63.9157 56.0093 63.1642 56.7427 62.2282 56.7427C62.0061 56.7449 61.7857 56.7026 61.58 56.6186C61.3743 56.5345 61.1874 56.4103 61.0303 56.2532C60.8732 56.0961 60.749 55.9092 60.6649 55.7035C60.5809 55.4978 60.5386 55.2774 60.5407 55.0552C60.5407 54.099 61.2945 53.3677 62.2282 53.3677ZM55.269 58.149C53.109 58.149 51.3315 59.9242 51.3315 62.0865C51.3315 64.2465 53.109 66.024 55.269 66.024C57.429 66.024 59.2065 64.2465 59.2065 62.0865C59.2065 59.9242 57.429 58.149 55.269 58.149ZM55.269 60.399C56.2027 60.399 56.9565 61.1302 56.9565 62.0865C56.9565 63.0405 56.2027 63.774 55.269 63.774C55.0468 63.7761 54.8264 63.7339 54.6207 63.6498C54.4151 63.5658 54.2282 63.4416 54.0711 63.2844C53.9139 63.1273 53.7897 62.9404 53.7057 62.7348C53.6216 62.5291 53.5794 62.3087 53.5815 62.0865C53.5815 61.1302 54.333 60.399 55.269 60.399Z" fill="url(#paint0_linear_108_599)"/>
<defs>
<linearGradient id="paint0_linear_108_599" x1="9.16878e-07" y1="36" x2="61.1869" y2="61.722" gradientUnits="userSpaceOnUse">
<stop stop-color="#50E1FC"/>
<stop offset="1" stop-color="#AE62F7"/>
</linearGradient>
</defs>
</svg>
