<svg width="67" height="72" viewBox="0 0 67 72" fill="none" xmlns="http://www.w3.org/2000/svg">
<g clip-path="url(#clip0_108_585)">
<path d="M64.51 40.95H60.08V36.84C60.08 35.27 60.08 33.69 60.08 32.12C60.08 31.01 59.58 30.5 58.49 30.47C57.57 30.47 56.64 30.47 55.71 30.47H52.14V18.01C52.14 16.65 51.67 16.18 50.28 16.16H49.86C49.4037 16.1348 48.9463 16.1348 48.49 16.16C48.253 16.208 48.0085 16.2039 47.7732 16.1481C47.538 16.0923 47.3177 15.9861 47.1275 15.8368C46.9373 15.6875 46.7818 15.4987 46.6717 15.2834C46.5617 15.0682 46.4996 14.8316 46.49 14.59C45.7653 10.6451 43.7302 7.0602 40.7142 4.416C37.6983 1.7718 33.8781 0.223076 29.8722 0.020585C25.8664 -0.181906 21.9095 0.973714 18.6423 3.30031C15.375 5.6269 12.9888 8.98825 11.87 12.84C11.74 13.29 11.63 13.75 11.51 14.22L11.19 15.53H8.60997C7.47736 15.5153 6.35329 15.7273 5.30388 16.1536C4.25447 16.5799 3.30097 17.212 2.49956 18.0124C1.69815 18.8129 1.065 19.7656 0.637438 20.8146C0.20988 21.8635 -0.00344079 22.9874 0.00999698 24.12C0.00999698 35.19 0.00999698 47.12 0.00999698 59.12C0.0386101 62.5246 1.40174 65.7821 3.80644 68.1924C6.21114 70.6027 9.46545 71.9734 12.87 72.01C24.34 72.01 36.01 72.01 47.29 72.01H58.44C59.57 72.01 60.07 71.5 60.08 70.37C60.08 68.22 60.08 66.07 60.08 63.91V59.71L60.64 59.44C60.7905 59.3466 60.963 59.2949 61.14 59.29H62.44H64.44C65.75 59.29 66.22 58.82 66.23 57.57C66.23 52.5967 66.23 47.63 66.23 42.67C66.25 41.43 65.74 41.01 64.51 40.95ZM46.67 20.19C46.95 18.31 47.46 18.11 49.24 18.35L49.94 18.45V30.4H42.05L43.05 28.89C43.1574 28.7074 43.2742 28.5304 43.4 28.36C45.1437 25.9461 46.2667 23.1403 46.67 20.19ZM14.34 12.19C15.4794 9.19348 17.5121 6.6195 20.1629 4.81654C22.8137 3.01359 25.9544 2.06877 29.16 2.11C31.276 2.13958 33.3649 2.59183 35.3037 3.44017C37.2425 4.28851 38.9923 5.51583 40.45 7.05C41.903 8.59064 43.0283 10.4101 43.7576 12.3984C44.4869 14.3866 44.805 16.5021 44.6929 18.6169C44.5807 20.7317 44.0405 22.8017 43.1049 24.7016C42.1693 26.6015 40.8579 28.2917 39.25 29.67C38.7477 30.0757 38.1255 30.3043 37.48 30.32C35.33 30.32 33.19 30.32 31.04 30.32H24.79C23.41 30.32 22.04 30.32 20.66 30.32C19.9577 30.2913 19.2839 30.0351 18.74 29.59C16.3176 27.4926 14.5969 24.7026 13.8101 21.5965C13.0233 18.4904 13.2083 15.2177 14.34 12.22V12.19ZM2.16997 23.42C2.32182 21.8471 3.04666 20.3851 4.20647 19.3119C5.36628 18.2388 6.88015 17.6295 8.46001 17.6H11.11V18.37C11.2898 22.2402 12.69 25.9543 15.11 28.98L16.11 30.3H14.43C13.68 30.3 12.94 30.3 12.2 30.3C11.46 30.3 10.76 30.3 10.02 30.3C9.08409 30.3118 8.14844 30.2583 7.21996 30.14C5.69473 29.8571 4.33064 29.0136 3.39604 27.7755C2.46145 26.5374 2.02406 24.9944 2.16997 23.45V23.42ZM57.89 69.82H13.77C6.82001 69.82 2.15001 65.14 2.15001 58.18V30.01L3.46001 31.01C5.63001 32.65 8.08998 32.65 10.68 32.64H57.91V41H53.79C52.08 41 50.36 41 48.65 41C47.403 40.997 46.1685 41.2481 45.0218 41.7379C43.875 42.2277 42.8402 42.9461 41.9802 43.8491C41.1203 44.7521 40.4532 45.8208 40.0199 46.9901C39.5867 48.1594 39.3962 49.4047 39.46 50.65C39.62 55.52 43.7 59.23 48.95 59.29C50.54 59.29 52.13 59.29 53.72 59.29H57.89V69.82ZM64.04 57.01L63.04 57.12C62.83 57.12 62.63 57.17 62.44 57.17H54.39H49.05C47.7022 57.2479 46.3603 56.939 45.1823 56.2795C44.0043 55.6199 43.0395 54.6373 42.4015 53.4476C41.7636 52.2578 41.479 50.9104 41.5815 49.5643C41.684 48.2182 42.1692 46.9295 42.98 45.85C43.5421 45.0772 44.2707 44.4405 45.1119 43.987C45.9531 43.5336 46.8854 43.2748 47.84 43.23C51.42 43.08 55.06 43.12 58.58 43.15C60.11 43.15 61.66 43.15 63.21 43.15H64.02L64.04 57.01Z" fill="url(#paint0_linear_108_585)"/>
<path d="M36.16 22.71C36.5674 21.9193 36.7407 21.0287 36.6592 20.143C36.5777 19.2572 36.2449 18.4131 35.7 17.71L35.32 17.23L35.68 16.73C36.2938 16.0095 36.6577 15.1096 36.7172 14.1649C36.7767 13.2203 36.5286 12.2818 36.01 11.49C35.01 9.91 33.47 9.23005 31.07 9.35005H30.33L30.22 8.63002C30.1858 8.14513 30.0849 7.6673 29.92 7.21003C29.3817 7.14858 28.8382 7.14858 28.3 7.21003C28.1779 7.18525 28.0521 7.18525 27.93 7.21003C27.9442 7.34968 27.9442 7.49038 27.93 7.63002C27.9507 8.03644 27.8964 8.44322 27.77 8.83003L27.57 9.36H25.76C24.76 9.36 23.76 9.36 22.69 9.36C22.5869 9.35039 22.4831 9.35039 22.38 9.36C22.38 9.36 22.38 9.45001 22.38 9.56001C22.395 9.7931 22.395 10.0269 22.38 10.26V10.48C22.38 10.87 22.38 11.25 22.38 11.48C22.56 11.48 22.87 11.4801 23.15 11.5401H23.31C23.5241 11.5557 23.7275 11.6399 23.89 11.78L24.26 12.03V12.45V22.76L23.26 22.85C22.94 22.85 22.61 22.85 22.42 22.93C22.42 23.1 22.42 23.37 22.42 23.61V24.47C22.42 24.59 22.42 24.83 22.42 25.01H27.7L27.82 25.68C27.94 26.35 28.05 26.93 28.13 27.21H28.84C29.2461 27.2385 29.6541 27.2047 30.05 27.11C30.0962 26.9022 30.1296 26.6918 30.15 26.48C30.15 26.22 30.22 25.95 30.27 25.73L30.44 25.05L31.13 25.1C32.1109 25.2454 33.1129 25.0957 34.0085 24.6701C34.9042 24.2445 35.6531 23.5623 36.16 22.71ZM26.54 11.5401H28.86C30.07 11.5401 31.32 11.5401 32.56 11.5401C32.8515 11.5515 33.1375 11.6236 33.3997 11.7517C33.6618 11.8798 33.8943 12.0611 34.0825 12.2841C34.2707 12.5071 34.4103 12.7668 34.4926 13.0468C34.5748 13.3267 34.5977 13.6207 34.56 13.91C34.5627 14.4689 34.3446 15.0062 33.9532 15.405C33.5619 15.8039 33.0288 16.0322 32.47 16.0401C31.76 16.0401 31.04 16.0401 30.33 16.0401H26.55L26.54 11.5401ZM30.25 22.89H26.51V18.31H28.83C30.02 18.31 31.25 18.31 32.46 18.31C32.754 18.3198 33.0427 18.3906 33.3079 18.518C33.573 18.6454 33.8087 18.8266 34 19.05C34.2003 19.2873 34.349 19.5636 34.4368 19.8614C34.5246 20.1592 34.5495 20.4721 34.51 20.78C34.4816 21.3451 34.2357 21.8772 33.8237 22.2649C33.4118 22.6526 32.8657 22.8659 32.3 22.86L30.25 22.89Z" fill="url(#paint1_linear_108_585)"/>
<path d="M49.25 48.44H49.19C48.758 48.4356 48.3416 48.6008 48.03 48.9001C47.7952 49.1296 47.6328 49.423 47.5629 49.7439C47.4931 50.0647 47.5188 50.3991 47.6369 50.7055C47.755 51.0119 47.9603 51.2769 48.2275 51.4679C48.4946 51.6589 48.8119 51.7674 49.14 51.7801C49.3606 51.7876 49.5805 51.7507 49.7866 51.6717C49.9927 51.5926 50.1809 51.4731 50.34 51.32C50.5009 51.1658 50.6296 50.9812 50.7189 50.777C50.8081 50.5728 50.8561 50.3529 50.86 50.13C50.8666 49.913 50.8301 49.6968 50.7526 49.494C50.675 49.2912 50.558 49.1058 50.4082 48.9486C50.2584 48.7914 50.0789 48.6654 49.8801 48.5782C49.6812 48.4909 49.4671 48.4439 49.25 48.44Z" fill="url(#paint2_linear_108_585)"/>
</g>
<defs>
<linearGradient id="paint0_linear_108_585" x1="0.00940026" y1="36.0039" x2="57.6209" y2="58.2753" gradientUnits="userSpaceOnUse">
<stop stop-color="#50E1FC"/>
<stop offset="1" stop-color="#AE62F7"/>
</linearGradient>
<linearGradient id="paint1_linear_108_585" x1="22.38" y1="17.1919" x2="35.5362" y2="21.1479" gradientUnits="userSpaceOnUse">
<stop stop-color="#50E1FC"/>
<stop offset="1" stop-color="#AE62F7"/>
</linearGradient>
<linearGradient id="paint2_linear_108_585" x1="47.5245" y1="50.1105" x2="50.3609" y2="51.3012" gradientUnits="userSpaceOnUse">
<stop stop-color="#50E1FC"/>
<stop offset="1" stop-color="#AE62F7"/>
</linearGradient>
<clipPath id="clip0_108_585">
<rect width="66.25" height="72" fill="white"/>
</clipPath>
</defs>
</svg>
