<svg width="72" height="72" viewBox="0 0 72 72" fill="none" xmlns="http://www.w3.org/2000/svg">
<g clip-path="url(#clip0_88_113)">
<g clip-path="url(#clip1_88_113)">
<path d="M70.88 51.4L64.3 48.09L60.88 46.4C60.68 46.31 60.5 46.2 60.31 46.1L60.04 45.94L57.45 44.51L60.34 42.98L60.82 42.73L63.5 41.37C65.84 40.2 68.25 38.98 70.64 37.8C71.8 37.23 71.96 36.6 71.96 36C71.96 35.4 71.81 34.77 70.65 34.2C68.25 33.01 65.82 31.79 63.48 30.61L60.88 29.27L60.36 29L60.09 28.85L57.39 27.4L60.39 25.85L60.95 25.56L63.68 24.19C66 23.02 68.39 21.81 70.76 20.64C71.1296 20.5175 71.4498 20.2792 71.6732 19.9604C71.8965 19.6415 72.0112 19.2592 72 18.87C72.0049 18.4911 71.8894 18.1203 71.6702 17.8112C71.4509 17.5022 71.1393 17.2706 70.78 17.15L36.98 0.26001C36.6741 0.0897969 36.33 0.000305798 35.98 0C35.6308 0.0151664 35.2893 0.107357 34.98 0.269989L1.26001 17.14C0.16001 17.68 0.0100195 18.31 0.0200195 18.9C0.0300195 19.49 0.180009 20.11 1.29001 20.66C3.74001 21.87 6.22 23.12 8.62 24.33L11.1 25.58L11.67 25.89L11.96 26.05L14.57 27.49L11.61 29.03L11.09 29.3L8.40002 30.66C6.09002 31.82 3.7 33.03 1.34 34.19C0.229996 34.73 0 35.3 0 35.98C0 36.66 0.150009 37.22 1.29001 37.78C3.20001 38.72 5.12999 39.69 6.98999 40.62L8.98999 41.62L10.99 42.62L14.68 44.49L12 45.95L11.71 46.11L11.17 46.39L8.57001 47.7C6.21001 48.89 3.77001 50.12 1.35001 51.31C0.200006 51.88 0.0500183 52.51 0.0500183 53.11C0.0500183 53.71 0.200007 54.32 1.32001 54.88C11.61 60.01 22.64 65.53 35.05 71.73C35.354 71.9055 35.6989 71.998 36.05 71.998C36.4011 71.998 36.7459 71.9055 37.05 71.73L43.11 68.73C52.25 64.16 61.7 59.44 70.98 54.73C71.3577 54.5159 71.6718 54.2053 71.89 53.83C72.0025 53.65 72.0758 53.4483 72.105 53.2381C72.1343 53.0279 72.119 52.8139 72.06 52.61C71.9573 52.3379 71.7995 52.0899 71.5964 51.8817C71.3934 51.6735 71.1495 51.5095 70.88 51.4ZM11.98 21.93L9.20001 20.54C9.08319 20.4831 8.96965 20.4197 8.85999 20.35L8.72003 20.26L6.34 18.82L8.78998 17.48L9.04999 17.34L9.60999 17.04L12.29 15.7C19.63 12.03 27.21 8.24 34.69 4.53C35.0877 4.32707 35.5258 4.21548 35.9721 4.20337C36.4185 4.19126 36.8619 4.27892 37.27 4.45999C44.92 8.25999 52.69 12.15 60.2 15.91L62.77 17.19C62.916 17.2629 63.0563 17.3465 63.19 17.44C63.2497 17.4718 63.3065 17.5086 63.36 17.55L65.85 19.05L53.88 25.03C48.45 27.75 42.88 30.56 37.29 33.3C36.8657 33.5043 36.4009 33.6103 35.93 33.61C35.5358 33.6159 35.1455 33.5304 34.79 33.36C27.17 29.55 19.43 25.68 11.94 21.93H11.98ZM12.24 39.17L9.32001 37.71C9.18878 37.6448 9.06186 37.5714 8.94 37.49L8.75 37.37L6.37 35.94L8.78998 34.59L9.07001 34.44C9.25001 34.33 9.40002 34.25 9.58002 34.16L11.88 33.03C13.76 32.1 15.7 31.13 17.59 30.16C18.0057 29.9333 18.4716 29.8145 18.945 29.8145C19.4185 29.8145 19.8843 29.9333 20.3 30.16L25.98 33.03C28.82 34.45 31.76 35.91 34.64 37.38C35.054 37.6226 35.5252 37.7505 36.005 37.7505C36.4848 37.7505 36.956 37.6226 37.37 37.38C40.11 35.98 42.9 34.59 45.6 33.25C47.6 32.25 49.67 31.25 51.69 30.25C52.1278 30.0137 52.6175 29.89 53.115 29.89C53.6125 29.89 54.1022 30.0137 54.54 30.25C56.39 31.19 58.28 32.13 60.11 33.04L62.41 34.19L62.96 34.49L63.28 34.67L65.94 36.13L62.59 37.83L61.37 38.44L58.09 40.03C51.31 43.42 44.29 46.93 37.37 50.37C36.9267 50.582 36.4414 50.6913 35.95 50.69C35.5493 50.6968 35.1523 50.6113 34.79 50.44C27.25 46.69 19.6 42.87 12.2 39.17H12.24ZM60.88 55.71L56.15 58.08L54.06 59.13C48.57 61.87 42.9 64.71 37.31 67.47C36.8775 67.6822 36.4018 67.7917 35.92 67.79C35.5076 67.7949 35.0999 67.7024 34.73 67.52C27.01 63.69 19.18 59.78 11.6 55.99L9.35999 54.87C9.16999 54.77 9.00998 54.67 8.85999 54.58L8.65002 54.45L6.14001 52.95L10.64 50.7C13.11 49.46 15.45 48.28 17.85 47.11C18.2303 46.9587 18.6398 46.8945 19.0482 46.9222C19.4566 46.9499 19.8536 47.0687 20.21 47.27L20.66 47.49C25.27 49.77 30.03 52.13 34.66 54.49C35.0406 54.7133 35.4738 54.831 35.915 54.831C36.3562 54.831 36.7894 54.7133 37.17 54.49C40 53.05 42.89 51.62 45.67 50.23L51.67 47.23C52.0969 46.999 52.5746 46.878 53.06 46.878C53.5454 46.878 54.0231 46.999 54.45 47.23C56.58 48.32 58.69 49.38 60.92 50.49L63.23 51.65L66.09 53.08L60.88 55.71Z" fill="url(#paint0_linear_88_113)"/>
</g>
</g>
<defs>
<linearGradient id="paint0_linear_88_113" x1="9.184e-07" y1="35.999" x2="61.2573" y2="61.7941" gradientUnits="userSpaceOnUse">
<stop stop-color="#50E1FC"/>
<stop offset="1" stop-color="#AE62F7"/>
</linearGradient>
<clipPath id="clip0_88_113">
<rect width="72" height="72" fill="white"/>
</clipPath>
<clipPath id="clip1_88_113">
<rect width="72.03" height="72" fill="white"/>
</clipPath>
</defs>
</svg>
