<svg width="22" height="18" viewBox="0 0 22 18" fill="none" xmlns="http://www.w3.org/2000/svg">
<path d="M21.6667 2C20.8667 2.4 20.0667 2.53333 19.1333 2.66667C20.0667 2.13333 20.7333 1.33333 21 0.266667C20.2 0.8 19.2667 1.06667 18.2 1.33333C17.4 0.533333 16.2 0 15 0C12.7333 0 10.7333 2 10.7333 4.4C10.7333 4.8 10.7333 5.06667 10.8667 5.33333C7.26667 5.2 3.93333 3.46667 1.8 0.8C1.4 1.46667 1.26667 2.13333 1.26667 3.06667C1.26667 4.53333 2.06667 5.86667 3.26667 6.66667C2.6 6.66667 1.93333 6.4 1.26667 6.13333C1.26667 8.26667 2.73333 10 4.73333 10.4C4.33333 10.5333 3.93333 10.5333 3.53333 10.5333C3.26667 10.5333 3 10.5333 2.73333 10.4C3.26667 12.1333 4.86667 13.4667 6.86667 13.4667C5.4 14.6667 3.53333 15.3333 1.4 15.3333C0.999999 15.3333 0.733332 15.3333 0.333332 15.3333C2.33333 16.5333 4.6 17.3333 7 17.3333C15 17.3333 19.4 10.6667 19.4 4.93333C19.4 4.8 19.4 4.53333 19.4 4.4C20.3333 3.73333 21.1333 2.93333 21.6667 2Z" fill="white"/>
</svg>
